<svg width="36" height="32" viewBox="0 0 36 32" fill="none" xmlns="http://www.w3.org/2000/svg">
<path d="M10.8 32C9.81 32 8.9628 31.6521 8.2584 30.9564C7.554 30.2607 7.2012 29.4234 7.2 28.4444V24.8889H3.6C2.61 24.8889 1.7628 24.541 1.0584 23.8453C0.354 23.1496 0.0012 22.3123 0 21.3333V14.2222C0 12.7111 0.525 11.4447 1.575 10.4231C2.625 9.40148 3.9 8.89007 5.4 8.88889H30.6C32.13 8.88889 33.4128 9.40029 34.4484 10.4231C35.484 11.4459 36.0012 12.7123 36 14.2222V21.3333C36 22.3111 35.6478 23.1484 34.9434 23.8453C34.239 24.5422 33.3912 24.8901 32.4 24.8889H28.8V28.4444C28.8 29.4222 28.4478 30.2596 27.7434 30.9564C27.039 31.6533 26.1912 32.0012 25.2 32H10.8ZM28.8 7.11111H7.2V3.55556C7.2 2.57778 7.5528 1.74104 8.2584 1.04533C8.964 0.34963 9.8112 0.00118519 10.8 0H25.2C26.19 0 27.0378 0.348445 27.7434 1.04533C28.449 1.74222 28.8012 2.57896 28.8 3.55556V7.11111ZM28.8 16.8889C29.31 16.8889 29.7378 16.7182 30.0834 16.3769C30.429 16.0356 30.6012 15.6136 30.6 15.1111C30.5988 14.6086 30.426 14.1867 30.0816 13.8453C29.7372 13.504 29.31 13.3333 28.8 13.3333C28.29 13.3333 27.8628 13.504 27.5184 13.8453C27.174 14.1867 27.0012 14.6086 27 15.1111C26.9988 15.6136 27.1716 16.0361 27.5184 16.3787C27.8652 16.7212 28.2924 16.8913 28.8 16.8889ZM10.8 28.4444H25.2V21.3333H10.8V28.4444Z" fill="#7D6AA6"/>
</svg>
